<?xml version="1.0" encoding="UTF-8"?>
<!DOCTYPE svg PUBLIC "-//W3C//DTD SVG 1.1//EN" "http://www.w3.org/Graphics/SVG/1.1/DTD/svg11.dtd">
<svg xmlns="http://www.w3.org/2000/svg" version="1.1" width="512px" height="512px" style="shape-rendering:geometricPrecision; text-rendering:geometricPrecision; image-rendering:optimizeQuality; fill-rule:evenodd; clip-rule:evenodd" xmlns:xlink="http://www.w3.org/1999/xlink">
<g><path style="opacity:0.984" fill="#54596e" d="M 116.5,-0.5 C 119.167,-0.5 121.833,-0.5 124.5,-0.5C 137.772,15.6207 150.939,31.9541 164,48.5C 205.127,16.1411 250.96,7.3078 301.5,22C 319.094,27.8757 334.928,36.709 349,48.5C 362.031,31.9785 375.197,15.6452 388.5,-0.5C 391.167,-0.5 393.833,-0.5 396.5,-0.5C 398.97,1.08167 400.47,3.41501 401,6.5C 400.824,123.488 401.157,240.488 402,357.5C 407.822,350.013 413.989,342.847 420.5,336C 423.964,335.183 427.298,335.517 430.5,337C 450.014,356.347 469.347,375.847 488.5,395.5C 499.068,399.404 506.734,406.404 511.5,416.5C 511.5,447.5 511.5,478.5 511.5,509.5C 510.29,509.932 509.29,510.599 508.5,511.5C 340.5,511.5 172.5,511.5 4.5,511.5C 3.54227,510.038 2.37561,508.705 1,507.5C 0.333333,478.5 0.333333,449.5 1,420.5C 4.40264,408.097 12.236,399.93 24.5,396C 43.8333,375.333 63.8333,355.333 84.5,336C 88.5328,334.96 92.1995,335.626 95.5,338C 101,344.833 106.5,351.667 112,358.5C 112.333,240.167 112.667,121.833 113,3.5C 114.032,1.97331 115.199,0.639972 116.5,-0.5 Z"/></g>
<g><path style="opacity:1" fill="#989898" d="M 242.5,31.5 C 296.288,28.8092 337.788,49.8092 367,94.5C 376.065,110.03 381.732,126.697 384,144.5C 384.667,223.5 384.667,302.5 384,381.5C 374.287,393.758 364.453,405.925 354.5,418C 344.5,424 334.5,430 324.5,436C 321.134,438.184 317.467,439.517 313.5,440C 294.48,442.338 275.48,444.838 256.5,447.5C 237.518,444.938 218.518,442.438 199.5,440C 195.533,439.517 191.866,438.184 188.5,436C 178.5,430 168.5,424 158.5,418C 149.026,405.559 139.193,393.392 129,381.5C 128.333,302.833 128.333,224.167 129,145.5C 136.644,96.6971 162.81,61.8637 207.5,41C 219,36.7111 230.666,33.5444 242.5,31.5 Z"/></g>
<g><path style="opacity:1" fill="#fcfcfc" d="M 162.5,208.5 C 172.658,207.341 182.992,207.175 193.5,208C 206.5,221 219.5,234 232.5,247C 222.803,245.862 213.136,244.196 203.5,242C 191.666,239.491 181.833,233.658 174,224.5C 170.39,218.923 166.557,213.59 162.5,208.5 Z"/></g>
<g><path style="opacity:1" fill="#fefefe" d="M 322.5,207.5 C 332.506,207.334 342.506,207.5 352.5,208C 347.309,216.863 340.976,224.863 333.5,232C 328.725,235.721 323.391,238.388 317.5,240C 305.906,243.081 294.239,245.414 282.5,247C 296.339,234.327 309.673,221.161 322.5,207.5 Z"/></g>
<g><path style="opacity:1" fill="#555a6e" d="M 146.5,263.5 C 183.039,270.174 219.539,277.174 256,284.5C 290.524,277.795 325.024,270.962 359.5,264C 365.73,262.364 369.897,264.531 372,270.5C 374.219,289.793 375.552,309.127 376,328.5C 375.154,338.038 372.488,347.038 368,355.5C 353.418,376.995 339.085,398.662 325,420.5C 318.014,428.445 309.181,432.445 298.5,432.5C 284.172,431.112 269.839,429.778 255.5,428.5C 241.5,429.833 227.5,431.167 213.5,432.5C 203.924,431.962 195.757,428.295 189,421.5C 172.575,396.748 156.575,371.748 141,346.5C 138.239,338.917 136.739,331.083 136.5,323C 137.743,304.415 139.577,285.915 142,267.5C 143.397,265.93 144.897,264.596 146.5,263.5 Z"/></g>
<g><path style="opacity:1" fill="#ecc776" d="M 359.5,309.5 C 358.258,308.957 356.925,308.623 355.5,308.5C 335.769,311.733 316.102,315.066 296.5,318.5C 296.16,315.325 294.493,313.159 291.5,312C 268.167,311.333 244.833,311.333 221.5,312C 218.979,313.558 217.312,315.725 216.5,318.5C 195.909,314.735 175.242,311.402 154.5,308.5C 154.737,309.791 154.404,310.791 153.5,311.5C 154.358,302.18 155.191,292.847 156,283.5C 156.388,282.572 157.055,281.905 158,281.5C 190.395,288.412 222.895,294.746 255.5,300.5C 289.507,294.165 323.507,287.832 357.5,281.5C 357.746,290.867 358.412,300.201 359.5,309.5 Z"/></g>
<g><path style="opacity:1" fill="#fed477" d="M 216.5,318.5 C 216.658,322.172 218.325,325.005 221.5,327C 244.833,327.667 268.167,327.667 291.5,327C 294.675,325.005 296.342,322.172 296.5,318.5C 316.102,315.066 335.769,311.733 355.5,308.5C 356.925,308.623 358.258,308.957 359.5,309.5C 361.917,322.835 360.084,335.501 354,347.5C 339.941,367.895 326.274,388.562 313,409.5C 308.37,414.607 302.537,416.941 295.5,416.5C 281.674,415.096 267.841,413.762 254,412.5C 240.66,413.767 227.327,415.101 214,416.5C 208.267,416.258 203.601,413.925 200,409.5C 185,386.167 170,362.833 155,339.5C 152.553,330.245 152.053,320.912 153.5,311.5C 154.404,310.791 154.737,309.791 154.5,308.5C 175.242,311.402 195.909,314.735 216.5,318.5 Z"/></g>
<g><path style="opacity:1" fill="#fe9998" d="M 296.5,318.5 C 296.342,322.172 294.675,325.005 291.5,327C 268.167,327.667 244.833,327.667 221.5,327C 218.325,325.005 216.658,322.172 216.5,318.5C 217.312,315.725 218.979,313.558 221.5,312C 244.833,311.333 268.167,311.333 291.5,312C 294.493,313.159 296.16,315.325 296.5,318.5 Z"/></g>
<g><path style="opacity:1" fill="#989898" d="M 87.5,355.5 C 107.461,379.398 126.961,403.732 146,428.5C 152.918,432.708 159.751,437.042 166.5,441.5C 147.548,443.875 128.548,445.375 109.5,446C 102.032,428.065 94.0315,410.398 85.5,393C 74.5973,391.711 63.5973,391.044 52.5,391C 64.3687,379.298 76.0354,367.465 87.5,355.5 Z"/></g>
<g><path style="opacity:1" fill="#989898" d="M 424.5,355.5 C 436.632,367.131 448.632,378.965 460.5,391C 449.403,391.044 438.403,391.711 427.5,393C 419.314,410.548 411.314,428.215 403.5,446C 398.5,446.667 393.5,446.667 388.5,446C 374.483,444.566 360.483,443.066 346.5,441.5C 353.249,437.042 360.082,432.708 367,428.5C 386.175,404.136 405.342,379.803 424.5,355.5 Z"/></g>
<g><path style="opacity:1" fill="#989898" d="M 47.5,407.5 C 57.0834,407.182 66.5834,407.515 76,408.5C 83,425.167 90,441.833 97,458.5C 98.1667,460.333 99.6667,461.833 101.5,463C 131.316,460.684 161.149,458.184 191,455.5C 200.595,455.909 210.095,457.076 219.5,459C 202.167,471 184.833,483 167.5,495C 117.168,495.5 66.8344,495.667 16.5,495.5C 16.3334,471.498 16.5,447.498 17,423.5C 18.7688,419.734 21.2688,416.567 24.5,414C 32.0871,411.191 39.7538,409.024 47.5,407.5 Z"/></g>
<g><path style="opacity:1" fill="#989898" d="M 437.5,407.5 C 454.547,406.16 471.214,407.994 487.5,413C 491.788,415.292 494.622,418.792 496,423.5C 496.5,447.498 496.667,471.498 496.5,495.5C 448.832,495.667 401.166,495.5 353.5,495C 334.833,482.667 316.167,470.333 297.5,458C 304.623,456.801 311.79,455.968 319,455.5C 349.822,458.484 380.656,460.984 411.5,463C 413.667,462.167 415.167,460.667 416,458.5C 423.179,441.479 430.346,424.479 437.5,407.5 Z"/></g>
</svg>
